<?xml version="1.0" encoding="utf-8"?>
<!-- Generator: Adobe Illustrator 27.5.0, SVG Export Plug-In . SVG Version: 6.00 Build 0)  -->
<svg version="1.1" xmlns="http://www.w3.org/2000/svg" xmlns:xlink="http://www.w3.org/1999/xlink" x="0px" y="0px"
	 viewBox="0 0 500 500" style="enable-background:new 0 0 500 500;" xml:space="preserve">
<g id="BACKGROUND">
	<rect x="0" style="fill:#B8F1FF;" width="500" height="500"/>
</g>
<g id="OBJECTS">
	<g>
		<path style="fill:#A0AD00;" d="M99.314,334.358c-6.063-1.069-12.579-1.553-18.158,0.986c-0.293,0.133-0.367,0.513-0.169,0.767
			c1.229,1.578,3.345,2.295,5.272,2.98c7.742,2.754,14.958,6.972,21.163,12.358c0.396,0.344,0.048,0.992-0.454,0.839
			c-10.911-3.32-22.657-3.866-33.827-1.561c-0.433,0.089-0.529,0.67-0.154,0.906c2.333,1.468,5.075,2.231,7.757,2.944
			c5.781,1.536,11.595,2.985,17.242,4.96c11.91,4.165,22.957,10.628,35.05,14.226c5.523,1.643,11.965,2.531,16.657-0.814
			c1.517-1.082,2.78-2.629,3.165-4.452c0.27-1.278,0.099-2.609-0.198-3.881c-2.306-9.889-14.537-15.662-22.913-19.974
			C120.193,339.72,109.901,336.225,99.314,334.358z"/>
		<path style="fill:#A0AD00;" d="M397.207,334.358c6.063-1.069,12.58-1.553,18.158,0.986c0.294,0.133,0.367,0.513,0.169,0.767
			c-1.229,1.578-3.345,2.295-5.272,2.98c-7.742,2.754-14.958,6.972-21.163,12.358c-0.396,0.344-0.048,0.992,0.454,0.839
			c10.911-3.32,22.657-3.866,33.827-1.561c0.433,0.089,0.529,0.67,0.154,0.906c-2.334,1.468-5.075,2.231-7.758,2.944
			c-5.781,1.536-11.595,2.985-17.241,4.96c-11.91,4.165-22.957,10.628-35.05,14.226c-5.523,1.643-11.965,2.531-16.657-0.814
			c-1.518-1.082-2.78-2.629-3.165-4.452c-0.27-1.278-0.099-2.609,0.198-3.881c2.306-9.889,14.537-15.662,22.913-19.974
			C376.328,339.72,386.621,336.225,397.207,334.358z"/>
		<g>
			<path style="fill:#4D5700;" d="M377.459,336.898c-2.561,0.67-5.121,1.339-7.682,2.009c1.999,0.831,3.754,2.108,4.343,4.184
				c0.235,0.839,0.198,1.706-0.045,2.536c-0.067,0.237-0.152,0.463-0.253,0.687c-0.488,1.106-1.333,2.093-2.338,2.774
				c-1.934,1.309-4.323,1.723-6.639,1.998c-2.781,0.324-5.575,0.496-8.378,0.51c2.097,0.757,2.625,3.313,2.175,5.487
				c-0.119,0.57-0.321,1.111-0.587,1.62c-0.113,0.216-0.238,0.425-0.381,0.622c-0.767,1.157-1.878,2.109-3.101,2.786
				c-1.936,1.087-4.143,1.601-6.312,2.097c-2.12,0.485-4.24,0.97-6.365,1.451c-0.699,0.163-1.405,0.323-2.11,0.483
				c2.435,1.025,3.531,4.59,2.08,6.802c-0.031,0.048-0.066,0.102-0.102,0.147c-0.137,0.201-0.292,0.39-0.458,0.556
				c-1.435,1.484-3.727,1.986-5.832,2.302c-8.351,1.249-16.807,1.496-25.246,1.44c-5.216-0.038-10.839-0.328-14.922-3.581
				c-4.722-3.764-3.634-12.741-2.554-19.251c0.046-0.285,0.095-0.559,0.14-0.828c0.059-0.344,0.115-0.682,0.172-1.011
				c1.23-7.196,3.385-14.231,6.402-20.876c2.762-6.087,6.448-12.065,12.112-15.604c1.092-0.685,2.379-1.287,3.621-0.959
				c1.246,0.322,2.48,2.175,1.584,3.095c3.395-3.523,7.231-6.621,11.382-9.202c1.285-0.799,2.62-1.557,4.094-1.896
				c0.67-0.157,1.377-0.214,2.054-0.145c0.258,0.021,0.511,0.064,0.756,0.119c0.552,0.133,1.072,0.355,1.538,0.688
				c0.233,0.166,0.451,0.383,0.64,0.631c0.825,1.046,1.22,2.709,0.755,3.847c2.746-3.438,6.387-6.151,10.465-7.81
				c0.857-0.343,1.783-0.65,2.69-0.646c0.26,0.005,0.514,0.032,0.775,0.089c0.044,0.011,0.094,0.026,0.137,0.037
				c0.815,0.225,1.51,0.772,2.108,1.376c1.687,1.701,2.853,4.138,2.519,6.514c2.851-2.607,5.869-5.038,9.033-7.258
				c1.974-1.385,4.063-2.722,6.424-3.214c1.01-0.211,2.12-0.247,3.063,0.137c0.216,0.087,0.426,0.197,0.623,0.34
				c0.028,0.009,0.054,0.035,0.084,0.054c0.507,0.376,0.883,0.888,1.167,1.453c0.803,1.584,1.258,3.524,0.492,5.131
				c3.057-0.768,6.259-1.536,9.325-0.795c2.53,0.611,4.89,2.615,5.43,5.059c0.058,0.241,0.09,0.482,0.102,0.728
				c0.021,0.285,0.016,0.571-0.018,0.863c-0.235,2.024-1.689,3.683-3.181,5.071c-2.971,2.768-6.395,5.05-10.1,6.736
				c1.291,0.199,2.064,0.702,3.141,1.435c1.08,0.726,1.932,1.875,2.055,3.168c0.059,0.624-0.051,1.233-0.285,1.796
				c-0.093,0.238-0.204,0.464-0.343,0.681c-0.404,0.684-0.979,1.276-1.625,1.728C380.718,336.039,379.064,336.474,377.459,336.898z"
				/>
			<path style="fill:#6C7A00;" d="M330.279,339.14l-11.469,4.712l39.245,14.85c-0.113,0.216-0.238,0.425-0.381,0.622l-39.832-15.073
				l-13.275,5.449l37.196,23.389c-0.137,0.201-0.292,0.39-0.458,0.556l-37.556-23.611l-10.999,4.521
				c0.046-0.285,0.095-0.559,0.14-0.828l19.225-7.896l22.196-38.7c0.258,0.021,0.511,0.064,0.756,0.119l-21.875,38.133l18.267-7.5
				l19.696-33.923c0.26,0.005,0.514,0.032,0.775,0.089l-19.388,33.39l28.933-11.886l13.74-23.912
				c0.216,0.087,0.426,0.197,0.623,0.34l-13.284,23.134l29.783-12.232c0.058,0.241,0.09,0.482,0.102,0.728l-38.461,15.794
				l30.073,3.275c-0.093,0.238-0.204,0.464-0.343,0.681l-31.113-3.389l-21.059,8.65l42.538,7.006
				c-0.067,0.237-0.152,0.463-0.253,0.687L330.279,339.14z"/>
			<path style="opacity:0.5;fill:#4D5700;" d="M341.864,372.942c-0.031,0.048-0.066,0.102-0.102,0.147
				c-0.137,0.201-0.292,0.39-0.458,0.556c-1.435,1.484-3.727,1.986-5.832,2.302c-8.351,1.249-16.807,1.496-25.246,1.44
				c-5.216-0.038-10.839-0.328-14.922-3.581c-4.722-3.764-3.634-12.741-2.554-19.251c0.046-0.285,0.095-0.559,0.14-0.828
				c0.059-0.344,0.115-0.682,0.172-1.011c1.23-7.196,3.385-14.231,6.402-20.876c2.762-6.087,6.448-12.065,12.112-15.604
				c1.092-0.685,2.379-1.287,3.621-0.959c1.246,0.322,2.48,2.175,1.584,3.095c3.395-3.523,7.231-6.621,11.382-9.202
				c1.285-0.799,2.62-1.557,4.094-1.896c0.67-0.157,1.377-0.214,2.054-0.145c0.258,0.021,0.511,0.064,0.756,0.119
				c0.552,0.133,1.072,0.355,1.538,0.688c0.233,0.166,0.451,0.383,0.64,0.631c-8.696,7.236-14.995,17.333-17.599,28.345
				c-0.587,2.494-0.995,5.053-0.885,7.612c0.153,3.512,1.283,6.92,2.82,10.088c1.01,2.082,2.223,4.1,3.912,5.691
				c2.182,2.043,5.032,3.241,7.919,4.038c2.775,0.759,5.613,1.167,8.483,1.316c-0.699,0.163-1.405,0.323-2.11,0.483
				C342.219,367.165,343.316,370.729,341.864,372.942z"/>
		</g>
		<g>
			<path style="fill:#4D5700;" d="M177.479,337.066c1.702,3.635,3.324,7.311,4.861,11.022c1.824,4.392,3.533,8.858,4.628,13.473
				c0.08,0.33,0.16,0.659,0.228,1c0.028,0.123,0.056,0.246,0.084,0.369c0.188,0.898-0.211,1.827-1.015,2.257
				c-9.122,4.91-19.43,7.335-29.782,6.789c-2.334-0.128-4.7-0.408-6.85-1.33c-2.145-0.928-4.059-2.587-4.848-4.789
				c-0.197-0.551-0.3-1.125-0.308-1.7c-0.004-0.282,0.013-0.564,0.058-0.827c0.188-1.402,0.925-2.714,2.107-3.576
				c-2.501,0.406-5.022,0.651-7.552,0.714c-2.658,0.073-5.357-0.06-7.875-0.921c-2.507-0.86-4.836-2.52-6.027-4.895
				c-0.122-0.249-0.232-0.508-0.327-0.761c-0.089-0.247-0.161-0.499-0.216-0.756c-0.126-0.531-0.192-1.064-0.196-1.601
				c-0.03-2.645,1.308-5.314,3.527-6.894c-3.179,0.499-6.381,0.858-9.576,1.202c-4.006,0.43-8.27,0.81-11.876-0.983
				c-1.078-0.528-2.075-1.257-2.797-2.217c-0.408-0.549-0.719-1.154-0.918-1.798c-0.084-0.241-0.15-0.499-0.2-0.75
				c-0.224-1.099-0.179-2.253,0.116-3.33c0.55-1.989,2.219-3.35,3.907-4.527c-6.063-0.229-12.099-1.064-17.994-2.486
				c-1.39-0.337-2.806-0.713-4.011-1.495c-0.936-0.615-1.748-1.524-2.096-2.574c-0.083-0.252-0.139-0.498-0.16-0.764
				c-0.015-0.039-0.013-0.084-0.017-0.122c-0.119-1.587,0.869-3.087,2.164-4.01c1.295-0.912,3.069-1.267,4.61-1.621
				c-4.048-1.674-7.732-4.222-10.718-7.431c-0.851-0.916-1.665-1.908-2.135-3.079c-0.354-0.884-0.482-1.901-0.26-2.815
				c0.061-0.257,0.143-0.503,0.264-0.741c0.012-0.033,0.025-0.065,0.043-0.092c0.987-1.849,3.366-2.377,5.455-2.48
				c4.727-0.222,9.504,0.72,13.791,2.736c-0.781-1.765-1.488-3.842-1.421-5.769c0.067-1.927,0.887-3.899,2.467-4.998
				c0.388-0.271,0.806-0.474,1.243-0.621c0.247-0.089,0.505-0.155,0.767-0.205c1.272-0.255,2.659-0.095,3.894,0.373
				c1.915,0.724,3.522,2.082,4.986,3.528c3.135,3.083,5.791,6.649,7.846,10.543c-0.533-1.367-0.127-2.832,0.386-4.203
				c0.425-1.143,1.314-2.128,2.424-2.605c0.22-0.096,0.45-0.169,0.69-0.219c0.017-0.005,0.045-0.009,0.067-0.008
				c1.133-0.233,2.343,0.046,3.393,0.451c1.496,0.568,2.845,1.483,4.003,2.584c3.41,3.255,6.339,7.015,8.662,11.12
				c0.125-1.366,0.169-3.156,0.743-4.404c0.311-0.667,0.769-1.288,1.331-1.751c0.43-0.363,0.918-0.63,1.454-0.761
				c0.073-0.013,0.151-0.032,0.223-0.046c0.184-0.031,0.367-0.05,0.555-0.042c0.842-0.019,1.697,0.267,2.479,0.61
				c4.463,1.918,7.943,5.619,10.616,9.667c2.679,4.053,4.666,8.508,7.015,12.758c-0.121-1.67,0.32-3.188,0.689-4.821
				c0.457-2.01,1.434-4.147,4.203-4.088c0.204,0.003,0.414,0.023,0.611,0.054c0.28,0.04,0.56,0.102,0.821,0.19
				c0.568,0.168,1.099,0.424,1.6,0.738C172.24,326.465,175.034,331.834,177.479,337.066z"/>
			<path style="fill:#6C7A00;" d="M169.917,352.867l17.052,8.695c0.08,0.33,0.16,0.659,0.228,1l-13.074-6.67l-29.647,8.266
				c-0.004-0.282,0.013-0.564,0.058-0.827l28.555-7.965l-14.849-7.576l-6.294-3.209l-22.652,7.788l-4.435,1.523
				c-0.089-0.247-0.161-0.499-0.216-0.756l2.919-1.002l23.421-8.048l-21.5-10.966l-26.676,7.725c-0.084-0.241-0.15-0.499-0.2-0.75
				l25.858-7.495l-23.02-11.745l-22.917,4.829c-0.083-0.252-0.139-0.498-0.16-0.764l21.968-4.627l-28.323-14.452
				c0.061-0.257,0.143-0.503,0.264-0.741l35.201,17.962l-13.623-29.187c0.247-0.089,0.505-0.155,0.767-0.205l13.988,29.966
				l18.891,9.637l-13.343-31.968c0.22-0.096,0.45-0.169,0.69-0.219c0.017-0.005,0.045-0.009,0.067-0.008l13.663,32.745l12.966,6.61
				l-6.427-29.33l-0.615-2.786c0.073-0.013,0.151-0.032,0.223-0.046c0.184-0.031,0.367-0.05,0.555-0.042l0.855,3.892l6.307,28.771
				l12.138,6.193l10.482,5.347l-4.168-30.023c0.28,0.04,0.56,0.102,0.821,0.19L169.917,352.867z"/>
			<path style="opacity:0.5;fill:#4D5700;" d="M177.479,337.066c1.702,3.635,3.324,7.311,4.861,11.022
				c1.824,4.392,3.533,8.858,4.628,13.473c0.08,0.33,0.16,0.659,0.228,1c0.028,0.123,0.056,0.246,0.084,0.369
				c0.188,0.898-0.211,1.827-1.015,2.257c-9.122,4.91-19.43,7.335-29.782,6.789c-2.334-0.128-4.7-0.408-6.85-1.33
				c-2.145-0.928-4.059-2.587-4.848-4.789c-0.197-0.551-0.3-1.125-0.308-1.7c-0.004-0.282,0.013-0.564,0.058-0.827
				c0.188-1.402,0.925-2.714,2.107-3.576c-2.501,0.406-5.022,0.651-7.552,0.714c-2.658,0.073-5.357-0.06-7.875-0.921
				c-2.507-0.86-4.836-2.52-6.027-4.895c-0.122-0.249-0.232-0.508-0.327-0.761c-0.089-0.247-0.161-0.499-0.216-0.756
				c-0.126-0.531-0.192-1.064-0.196-1.601c0.618,0.165,1.148,0.304,1.555,0.366c0.522,0.083,1.038,0.161,1.561,0.233
				c0.577,0.086,1.149,0.166,1.732,0.235c5.038,0.66,10.134,0.991,15.222,0.978c4.496,0,9.489-0.486,12.498-3.819
				c0.488-0.532,0.895-1.117,1.225-1.739c0.126-0.232,0.241-0.465,0.34-0.704c0.913-2.057,1.132-4.453,0.803-6.696
				c-0.475-3.223-1.956-6.201-3.616-8.994c-4.244-7.135-9.753-13.385-15.633-19.274c-0.334-0.341-0.678-0.682-1.018-1.017
				c-0.684-0.677-1.38-1.354-2.07-2.025c0.43-0.363,0.918-0.63,1.454-0.761c0.073-0.013,0.151-0.032,0.223-0.046
				c0.184-0.031,0.367-0.05,0.555-0.042c0.842-0.019,1.697,0.267,2.479,0.61c4.463,1.918,7.943,5.619,10.616,9.667
				c2.679,4.053,4.666,8.508,7.015,12.758c-0.121-1.67,0.32-3.188,0.689-4.821c0.457-2.01,1.434-4.147,4.203-4.088
				c0.204,0.003,0.414,0.023,0.611,0.054c0.28,0.04,0.56,0.102,0.821,0.19c0.568,0.168,1.099,0.424,1.6,0.738
				C172.24,326.465,175.034,331.834,177.479,337.066z"/>
		</g>
	</g>
	<path style="fill:#FFFFFF;" d="M178.02,110.794c1.206,4.994-0.23,10.548-3.706,14.331c-3.475,3.783-8.887,5.685-13.965,4.907
		c-5.078-0.778-9.252-3.749-11.435-8.399c-1.851,4.608-4.343,9.247-8.54,11.901c-5.212,3.296-12.372,2.731-17.449-0.769
		c-5.077-3.5-7.787-8.985-8.301-15.13c-3.964,3.567-9.913,4.764-14.949,3.008c-4.67-1.628-8.336-5.592-10.143-10.195
		c-1.807-4.604-1.866-9.776-0.744-14.593c0.677-2.905,1.801-5.765,3.726-8.045c1.925-2.279,4.728-3.925,7.711-3.995
		c1.06-3.824,3.014-8.207,5.875-10.957c2.861-2.75,6.96-4.393,10.859-3.658c2.726,0.514,5.155,2.13,7.058,4.149
		c1.903,2.019,3.331,4.434,4.645,6.878c1.499-4.894,4.438-10.368,8.516-13.461c4.078-3.093,9.715-4.371,14.478-2.498
		c5.888,2.316,9.175,8.71,10.406,14.917c1.718-2.418,3.586-4.971,5.827-6.912c2.242-1.942,5.061-3.369,8.027-3.385
		c4.185-0.022,8.061,2.891,9.823,6.687c1.762,3.796,1.609,8.287,0.258,12.248c3.641,0.271,6.959,3.238,8.132,6.695
		c1.174,3.457,0.502,7.379-1.32,10.542c-1.387,2.407-3.467,4.472-6.039,5.523C184.197,111.634,180.399,112.228,178.02,110.794z"/>
	<path style="fill:#FFFFFF;" d="M371.05,138.654c0.441-6.882,3.139-13.819,8.346-18.341c5.207-4.522,13.102-6.164,19.263-3.066
		c4.293,2.159,7.3,6.235,9.578,10.466c1.92-4.372,5.739-7.568,10.473-8.2c4.733-0.632,9.724,1.326,12.794,4.983
		c3.071,3.657,4.138,8.889,2.783,13.468c3.807-0.186,7.784,2.478,8.518,6.218c0.734,3.74-0.983,7.702-3.837,10.229
		c2.756,3.581,4.519,8.071,4.434,12.589c-0.085,4.518-2.309,9.096-6.188,11.414c-3.136,1.875-7.097,2.138-10.591,1.069
		c-3.494-1.069-6.529-3.385-8.823-6.229c-1.588,4.463-4.114,8.566-7.982,11.301c-5.088,3.598-12.211,3.781-17.761,0.948
		c-5.55-2.833-9.48-8.398-10.892-14.468c-0.822,1.701-3.06,2.565-4.926,2.861c-1.866,0.296-3.783-0.116-5.542-0.803
		c-6.613-2.585-11.354-9.375-11.502-16.474C359.046,149.52,364.55,141.512,371.05,138.654z"/>
	<g>
		<path style="fill:#8A9600;" d="M416.132,375.31c0.427-0.811,0.786-1.657,1.021-2.543c0.486-1.837,0.152-4.348-1.686-4.829
			c-1.273-0.333-2.519,0.535-3.549,1.352c0.185-1.89-0.391-3.843-1.572-5.33c-0.289-0.363-0.676-0.727-1.139-0.701
			c-0.43,0.024-0.762,0.375-1.025,0.716c-1.106,1.432-2.513,4.929-3.047,8.346c-12.132-2.995-26.414-5.63-42.385-7.815
			c0.872-1.04,1.668-2.145,2.376-3.269c0.246-0.391,0.491-0.799,0.563-1.255c0.214-1.354-1.256-2.498-2.626-2.469
			c-1.37,0.029-2.583,0.852-3.678,1.677c0.546-1.389,0.94-2.838,1.173-4.312c0.078-0.495,0.136-1.017-0.049-1.483
			c-0.341-0.861-1.43-1.225-2.335-1.034c-0.906,0.192-1.66,0.801-2.348,1.42c-1.426,1.282-5.109,5.172-7.026,8.979
			c-29.113-3.313-62.842-5.207-98.801-5.207c-37.565,0-72.695,2.068-102.672,5.66c-2.192-4.504-7.434-9.318-9.959-10.477
			c-0.782-0.359-1.72-0.657-2.471-0.237c-0.848,0.475-1.022,1.633-0.869,2.593c0.153,0.96,0.534,1.907,0.418,2.872
			c-2.121-1.848-5.096-2.671-7.864-2.176c-0.399,0.071-0.807,0.175-1.124,0.427c-1.019,0.812-0.484,2.446,0.209,3.549
			c1.33,2.116,2.968,4.032,4.823,5.706c-48.286,7.212-79.517,18.686-79.517,31.609c0,21.83,89.107,39.527,199.027,39.527
			c109.919,0,199.026-17.697,199.026-39.527C449.026,389.034,436.915,381.553,416.132,375.31z"/>
		<g>
			<line style="fill:none;stroke:#596100;stroke-miterlimit:10;" x1="104.106" y1="377.526" x2="104.106" y2="381.874"/>
			<line style="fill:none;stroke:#596100;stroke-miterlimit:10;" x1="117.128" y1="375.994" x2="117.128" y2="378.56"/>
			<line style="fill:none;stroke:#596100;stroke-miterlimit:10;" x1="119.936" y1="378.037" x2="119.936" y2="380.857"/>
			<line style="fill:none;stroke:#596100;stroke-miterlimit:10;" x1="84.191" y1="393.867" x2="84.191" y2="396.432"/>
			<line style="fill:none;stroke:#596100;stroke-miterlimit:10;" x1="87.255" y1="394.633" x2="87.255" y2="398.216"/>
			<line style="fill:none;stroke:#596100;stroke-miterlimit:10;" x1="164.617" y1="424.505" x2="164.617" y2="427.569"/>
			<line style="fill:none;stroke:#596100;stroke-miterlimit:10;" x1="166.915" y1="426.292" x2="166.915" y2="428.845"/>
			<line style="fill:none;stroke:#596100;stroke-miterlimit:10;" x1="310.149" y1="424.25" x2="310.149" y2="426.915"/>
			<line style="fill:none;stroke:#596100;stroke-miterlimit:10;" x1="226.66" y1="426.547" x2="226.66" y2="429.622"/>
			<line style="fill:none;stroke:#596100;stroke-miterlimit:10;" x1="362.745" y1="414.037" x2="362.745" y2="417.356"/>
			<line style="fill:none;stroke:#596100;stroke-miterlimit:10;" x1="365.298" y1="416.079" x2="365.298" y2="418.138"/>
			<line style="fill:none;stroke:#596100;stroke-miterlimit:10;" x1="368.872" y1="372.675" x2="368.872" y2="375.781"/>
			<line style="fill:none;stroke:#596100;stroke-miterlimit:10;" x1="371.17" y1="374.973" x2="371.17" y2="378.379"/>
			<line style="fill:none;stroke:#596100;stroke-miterlimit:10;" x1="329.553" y1="368.845" x2="329.553" y2="371.7"/>
			<line style="fill:none;stroke:#596100;stroke-miterlimit:10;" x1="401.298" y1="396.42" x2="401.298" y2="400.03"/>
			<line style="fill:none;stroke:#596100;stroke-miterlimit:10;" x1="403.34" y1="399.228" x2="403.34" y2="401.034"/>
			<line style="fill:none;stroke:#596100;stroke-miterlimit:10;" x1="409.723" y1="385.186" x2="409.723" y2="387.789"/>
			<line style="fill:none;stroke:#596100;stroke-miterlimit:10;" x1="412.532" y1="406.633" x2="412.532" y2="410.105"/>
		</g>
	</g>
	<g>
		<ellipse style="fill:#6C7A01;" cx="242.135" cy="397.982" rx="136.013" ry="23.459"/>
		<g>
			<g>
				<path style="fill:#FFC080;" d="M414.377,273.737c-3.626,5.304-8.701,9.006-14.495,11.62c-8.189,3.697-17.822,5.206-26.871,5.962
					c-18.121,1.508-36.379,1.459-54.495-0.152c-11.081-0.986-22.123-2.554-33.193-3.566c-5.755-0.523-11.516-0.898-17.299-0.964
					c-22.515-0.256-44.72,4.187-67.04,7.443c-9.36,1.361-18.742,2.516-28.173,3.027c-30.199,1.628-61.922-4.051-86.479-21.328
					c-2.276-1.601-4.487-3.294-6.627-5.097c3.844-1.1,7.65-2.445,11.473-3.73c0,0,0.005,0,0.005-0.006
					c2.968-1.002,5.941-1.966,8.946-2.766c2.407-0.643,4.824-1.263,7.242-1.868C207.975,237.124,315.674,241.85,414.377,273.737z"/>
				<g>
					<g>
						<path style="fill:#D46018;" d="M179.587,293.55c-21.922-3.245-42.815-10.431-62.097-21.357l0.805-1.421
							c19.107,10.826,39.809,17.946,61.532,21.162L179.587,293.55z"/>
					</g>
					<g>
						<path style="fill:#D46018;" d="M297.504,288.426l-0.059-1.633c23.162-0.824,49.702-2.775,71.545-15.575l0.826,1.409
							C347.645,285.621,320.865,287.595,297.504,288.426z"/>
					</g>
				</g>
				<path style="opacity:0.5;fill:#FFC080;" d="M399.882,285.357c-8.189,3.697-17.822,5.206-26.871,5.962
					c-18.121,1.508-36.379,1.459-54.495-0.152c-11.081-0.986-22.123-2.554-33.193-3.566c-0.632-2.951-0.904-6.006-0.937-9.017
					c-0.049-5.086,0.604-10.318,3.06-14.767c2.461-4.454,6.997-7.993,12.077-8.184c4.078-0.152,10.721,3.125,10.063,8.021
					c-0.272,1.998-1.399,3.436-1.182,5.581c0.294,2.886,2.037,5.614,3.937,7.721c6.719,7.454,16.945,11.13,26.975,11.353
					c10.035,0.223,19.907-2.712,29.071-6.801c4.454-1.987,8.935-4.291,13.803-4.59c6.294-0.387,12.464,2.755,16.76,7.373
					C399.272,284.632,399.583,284.986,399.882,285.357z"/>
				<path style="opacity:0.5;fill:#FFC080;" d="M202.819,290.502c-0.566,1.214-1.182,2.407-1.835,3.577
					c-9.36,1.361-18.742,2.516-28.173,3.027c-30.199,1.628-61.922-4.051-86.479-21.328c1.1-3.202,2.712-6.207,4.846-8.826
					c0,0,0.005,0,0.005-0.006c0.142-0.169,0.283-0.343,0.43-0.512c3.24-3.763,8.26-6.708,13.041-5.363
					c0.975,0.272,1.873,0.702,2.717,1.241c1.889,1.209,3.496,2.946,5.015,4.634c1.056,1.176,2.118,2.352,3.174,3.523l-1.443,2.565
					c4.105,5.788,10.487,9.589,17.114,12.121c8.854,3.37,19.237,4.617,27.514,0.011c9.758-5.434,14.538-17.773,24.841-22.08
					c6.703-2.804,15.377-1.067,19.597,4.852C207.763,274.368,206.167,283.353,202.819,290.502z"/>
			</g>
			<g>
				<path style="fill:#FFE3C7;" d="M350.038,397.983c-4.552,5.184-10.901,8.587-17.571,10.357
					c-6.67,1.764-13.673,1.971-20.555,1.486c-7.471-0.528-31.228-1.519-46.811-3.545c-6.779,1.503-13.716,2.385-20.615,2.701
					c-10.346,0.468-20.86-0.289-30.934-2.646c-12.475,1.988-29.975,2.968-37.381,3.49c-6.883,0.485-13.88,0.278-20.55-1.486
					c-6.67-1.77-13.019-5.173-17.577-10.357c-4.552-5.184-7.155-12.241-6.251-19.08c0.136-0.996,0.349-2.015,0.931-2.837
					c1.405-1.998,4.509-2.075,6.605-0.828c2.102,1.252,4.525,3.953,5.772,6.055c4.481-2.178,9.311-3.621,14.25-4.263
					c2.815-0.365,5.652-0.468,8.494-0.474c-4.852-7.122-8.217-15.17-9.447-23.719c-0.131-0.92-0.24-1.846-0.327-2.771
					c-0.964-10.444,1.007-21.024,3.724-31.2c2.064-7.743,4.563-15.366,7.476-22.826c2.423-6.202,5.129-12.3,8.113-18.252
					c0.153-0.316,0.31-0.626,0.468-0.936c2.657-5.238,5.706-8.233,10.525-11.636c10.482-7.4,23.098-11.288,35.676-13.204
					c18.6-2.831,37.903-1.623,55.747,4.345c6.039,2.02,12.023,4.656,16.667,9.006c3.223,3.017,5.658,6.719,7.688,10.672
					c1.171,2.281,2.211,4.645,3.191,7.008c7.34,17.735,12.137,36.526,14.201,55.605c0.174,1.595,0.327,3.202,0.441,4.819
					c0.67,9.148,0.267,18.47-3.512,26.746c-1.046,2.287-2.331,4.449-3.79,6.49c0.659-0.06,1.28-0.103,1.852-0.109
					c4.067-0.076,8.157-0.087,12.191,0.436c4.939,0.642,9.774,2.085,14.255,4.263c1.247-2.102,3.67-4.802,5.766-6.055
					c2.102-1.247,5.206-1.171,6.61,0.828c0.577,0.822,0.795,1.84,0.926,2.837C357.198,385.742,354.595,392.799,350.038,397.983z"/>
				<g>
					<g>
						<g>
							<path style="fill:#E6A86C;" d="M160.542,339.371c0.446,1.755,1.061,3.457,1.855,5.075c0.84,1.596,1.818,3.111,2.941,4.516
								c1.157,1.377,2.437,2.646,3.834,3.772c1.419,1.098,2.924,2.081,4.526,2.882c1.617,0.768,3.303,1.383,5.043,1.788
								c0.878,0.158,1.749,0.345,2.643,0.429c0.891,0.1,1.794,0.154,2.702,0.195c1.815,0.087,3.659,0.124,5.507,0.335
								c0.923,0.106,1.849,0.239,2.757,0.469c0.452,0.106,0.918,0.234,1.37,0.436c0.45,0.198,0.89,0.496,1.203,0.911l-0.419,0.347
								c-0.562-0.583-1.431-0.788-2.312-0.922c-0.887-0.138-1.779-0.245-2.681-0.298c-1.803-0.104-3.626-0.084-5.47-0.143
								c-0.922-0.034-1.849-0.081-2.779-0.177c-0.93-0.091-1.854-0.295-2.774-0.47c-1.828-0.439-3.592-1.097-5.277-1.914
								c-1.668-0.853-3.24-1.88-4.697-3.052c-1.43-1.205-2.731-2.553-3.898-4.009c-1.135-1.482-2.116-3.075-2.912-4.759
								c-0.759-1.701-1.337-3.477-1.695-5.298L160.542,339.371z"/>
						</g>
						<g>
							<path style="fill:#E6A86C;" d="M194.02,356.904c1.019,2.039,1.241,4.311,1.574,6.449c0.172,1.073,0.346,2.14,0.679,3.144
								c0.325,1.006,0.806,1.94,1.447,2.766c1.284,1.652,3.12,2.845,5.107,3.542c1.988,0.692,4.174,0.915,6.231,0.568
								c1.027-0.176,1.993-0.548,2.85-1.106c0.853-0.567,1.59-1.313,2.182-2.169c1.192-1.721,1.821-3.796,1.949-5.917
								c0.143-2.126-0.131-4.281-0.516-6.418c-0.398-2.142-0.851-4.279-1.402-6.384c-1.101-4.205-2.589-8.333-4.826-12.042
								c-1.117-1.85-2.422-3.586-3.927-5.13c-1.504-1.544-3.208-2.891-5.028-4.065c-3.65-2.349-7.696-4.043-11.72-5.765
								c-2.016-0.858-4.037-1.722-6.018-2.68c-0.986-0.492-1.976-0.963-2.937-1.527c-0.957-0.563-1.887-1.225-2.639-2.083
								l0.408-0.361c1.428,1.577,3.486,2.457,5.435,3.409c1.975,0.926,3.996,1.762,6.022,2.596
								c4.046,1.664,8.146,3.337,11.885,5.734c1.866,1.192,3.627,2.571,5.187,4.16c1.56,1.588,2.913,3.371,4.067,5.266
								c2.312,3.799,3.842,8.001,4.975,12.256c0.567,2.132,1.032,4.283,1.444,6.448c0.399,2.167,0.698,4.395,0.556,6.651
								c-0.125,2.246-0.791,4.525-2.097,6.42c-0.65,0.948-1.472,1.792-2.444,2.444c-0.975,0.649-2.1,1.065-3.234,1.251
								c-2.271,0.366-4.581,0.107-6.723-0.648c-2.133-0.756-4.12-2.064-5.493-3.914c-0.688-0.917-1.202-1.969-1.53-3.054
								c-0.333-1.086-0.505-2.194-0.641-3.287c-0.264-2.18-0.417-4.37-1.314-6.315L194.02,356.904z"/>
						</g>
						<g>
							<path style="fill:#E6A86C;" d="M216.822,363.424l-0.474-0.267c0.997-1.771,1.366-3.849,1.038-5.854
								c-0.328-2.006-1.34-3.859-2.849-5.22l0.365-0.404c1.6,1.443,2.673,3.409,3.021,5.535
								C218.271,359.341,217.879,361.546,216.822,363.424z"/>
						</g>
					</g>
					<g>
						<g>
							<path style="fill:#E6A86C;" d="M319.723,339.482c-0.358,1.821-0.936,3.597-1.694,5.298c-0.796,1.684-1.778,3.277-2.913,4.759
								c-1.167,1.455-2.467,2.803-3.897,4.009c-1.457,1.172-3.029,2.199-4.698,3.052c-1.685,0.817-3.449,1.476-5.277,1.914
								c-0.921,0.174-1.844,0.379-2.774,0.47c-0.93,0.097-1.857,0.143-2.779,0.177c-1.844,0.06-3.667,0.04-5.47,0.143
								c-0.902,0.053-1.794,0.16-2.681,0.298c-0.881,0.134-1.749,0.34-2.311,0.922l-0.419-0.347
								c0.313-0.415,0.752-0.713,1.203-0.911c0.452-0.201,0.918-0.33,1.37-0.436c0.907-0.23,1.834-0.363,2.757-0.469
								c1.848-0.21,3.691-0.248,5.507-0.335c0.908-0.041,1.81-0.094,2.702-0.195c0.894-0.084,1.765-0.271,2.643-0.429
								c1.74-0.405,3.426-1.02,5.043-1.788c1.603-0.801,3.108-1.785,4.526-2.882c1.398-1.126,2.677-2.395,3.835-3.772
								c1.123-1.405,2.101-2.921,2.941-4.516c0.795-1.618,1.409-3.32,1.855-5.075L319.723,339.482z"/>
						</g>
						<g>
							<path style="fill:#E6A86C;" d="M286.201,357.142c-0.897,1.945-1.05,4.135-1.314,6.315c-0.136,1.093-0.307,2.201-0.641,3.287
								c-0.328,1.085-0.842,2.137-1.53,3.054c-1.373,1.85-3.36,3.158-5.493,3.914c-2.142,0.755-4.452,1.013-6.723,0.648
								c-1.134-0.186-2.26-0.602-3.235-1.251c-0.971-0.651-1.794-1.495-2.444-2.444c-1.306-1.895-1.972-4.174-2.097-6.42
								c-0.142-2.256,0.158-4.484,0.556-6.651c0.411-2.165,0.877-4.316,1.444-6.448c1.133-4.255,2.663-8.457,4.975-12.256
								c1.154-1.895,2.507-3.678,4.067-5.266c1.56-1.589,3.322-2.968,5.187-4.16c3.738-2.396,7.839-4.07,11.885-5.734
								c2.026-0.834,4.046-1.669,6.022-2.596c1.949-0.952,4.007-1.832,5.435-3.409l0.408,0.361c-0.752,0.858-1.682,1.52-2.639,2.083
								c-0.961,0.565-1.951,1.035-2.937,1.527c-1.982,0.958-4.002,1.822-6.018,2.68c-4.024,1.722-8.07,3.416-11.72,5.765
								c-1.82,1.174-3.524,2.52-5.028,4.065c-1.505,1.544-2.811,3.28-3.927,5.13c-2.237,3.709-3.725,7.837-4.826,12.042
								c-0.551,2.105-1.004,4.242-1.402,6.384c-0.385,2.137-0.659,4.291-0.516,6.418c0.127,2.121,0.757,4.196,1.949,5.917
								c0.592,0.856,1.33,1.602,2.182,2.169c0.857,0.558,1.823,0.93,2.85,1.106c2.057,0.347,4.243,0.124,6.231-0.568
								c1.988-0.697,3.823-1.89,5.107-3.542c0.641-0.826,1.122-1.76,1.447-2.766c0.334-1.004,0.507-2.071,0.679-3.144
								c0.333-2.138,0.555-4.41,1.574-6.449L286.201,357.142z"/>
						</g>
						<g>
							<path style="fill:#E6A86C;" d="M262.909,363.424c-1.058-1.878-1.448-4.083-1.1-6.209c0.347-2.126,1.42-4.092,3.021-5.535
								l0.365,0.404c-1.51,1.361-2.521,3.214-2.849,5.22c-0.328,2.004,0.04,4.083,1.038,5.854L262.909,363.424z"/>
						</g>
					</g>
					<g>
						<path style="fill:#E6A86C;" d="M145.262,381.491c0.454,0.461,0.796,0.981,1.101,1.519c0.298,0.54,0.546,1.105,0.745,1.686
							c0.199,0.581,0.349,1.178,0.444,1.788c0.089,0.612,0.137,1.233,0.058,1.875c-0.365-0.534-0.629-1.084-0.88-1.635
							c-0.244-0.553-0.46-1.11-0.653-1.676c-0.193-0.565-0.364-1.138-0.509-1.725C145.429,382.732,145.302,382.136,145.262,381.491z
							"/>
					</g>
					<g>
						<path style="fill:#E6A86C;" d="M342.6,381.26c-0.191,0.656-0.459,1.247-0.736,1.829c-0.282,0.578-0.587,1.138-0.911,1.686
							c-0.324,0.548-0.668,1.084-1.04,1.61c-0.377,0.523-0.768,1.041-1.252,1.523c0.073-0.68,0.266-1.313,0.497-1.927
							c0.237-0.612,0.525-1.2,0.858-1.761c0.333-0.561,0.71-1.097,1.133-1.598C341.579,382.125,342.04,381.652,342.6,381.26z"/>
					</g>
					<g>
						<path style="fill:#E6A86C;" d="M190.064,395.875c1.79,0.798,3.541,1.641,5.296,2.474c1.757,0.826,3.504,1.665,5.266,2.47
							c1.754,0.824,3.522,1.617,5.288,2.424c1.769,0.801,3.543,1.594,5.308,2.447c-1.914-0.424-3.785-1-5.626-1.659
							c-1.844-0.652-3.649-1.41-5.427-2.225c-1.77-0.833-3.514-1.721-5.203-2.708C193.273,398.117,191.624,397.061,190.064,395.875z
							"/>
					</g>
					<g>
						<path style="fill:#E6A86C;" d="M265.864,406.476l6.5-2.505c2.15-0.857,4.29-1.729,6.404-2.663
							c2.122-0.915,4.217-1.891,6.308-2.883l6.259-3.057c-1.862,1.408-3.835,2.662-5.866,3.811
							c-2.029,1.155-4.128,2.185-6.265,3.127c-2.145,0.924-4.328,1.762-6.555,2.462
							C270.424,405.475,268.163,406.068,265.864,406.476z"/>
					</g>
				</g>
				<g>
					<g>
						<path style="fill:#550E00;" d="M204.277,289.855c0.874,1.508,1.744,2.94,2.704,4.282c0.475,0.673,0.972,1.321,1.477,1.953
							c0.513,0.621,1.036,1.26,1.562,1.78c0.516,0.539,1.038,0.949,1.572,1.265c0.547,0.319,1.148,0.564,1.782,0.74
							c1.275,0.348,2.635,0.393,4.05,0.198c1.406-0.197,2.88-0.62,4.302-1.172c1.421-0.543,2.779-1.233,4.05-2.066
							c2.528-1.674,4.704-3.989,6.194-7.1c0.066-0.141,0.234-0.202,0.374-0.136c0.094,0.044,0.152,0.136,0.161,0.232
							c0.148,1.804-0.252,3.672-1.008,5.387c-0.756,1.718-1.901,3.298-3.28,4.611c-1.372,1.329-2.983,2.387-4.687,3.211
							c-1.708,0.799-3.521,1.412-5.504,1.659c-1.961,0.251-4.101,0.109-6.063-0.65c-0.984-0.365-1.928-0.89-2.769-1.563
							c-0.864-0.668-1.537-1.501-2.085-2.293c-0.536-0.816-0.966-1.596-1.357-2.422c-0.395-0.818-0.731-1.661-1.019-2.515
							c-0.284-0.855-0.519-1.723-0.678-2.604c-0.167-0.878-0.281-1.761-0.304-2.651c-0.004-0.155,0.118-0.284,0.274-0.288
							C204.133,289.712,204.227,289.769,204.277,289.855z"/>
					</g>
					<g>
						<path style="fill:#550E00;" d="M256.736,289.858c0.851,1.483,1.69,2.896,2.607,4.229c0.456,0.667,0.932,1.311,1.415,1.939
							c0.492,0.616,0.991,1.254,1.497,1.783c0.492,0.546,0.999,0.97,1.502,1.292c0.514,0.328,1.089,0.571,1.688,0.757
							c1.215,0.357,2.513,0.414,3.877,0.22c1.353-0.195,2.781-0.626,4.155-1.183c1.372-0.551,2.678-1.251,3.899-2.09
							c2.431-1.688,4.492-4.014,5.953-7.067l0.002-0.004c0.067-0.14,0.235-0.2,0.376-0.132c0.093,0.044,0.15,0.134,0.159,0.229
							c0.31,3.553-1.329,7.261-3.972,9.905c-1.314,1.341-2.874,2.423-4.539,3.266c-1.669,0.815-3.448,1.447-5.412,1.701
							c-1.942,0.259-4.077,0.095-6.008-0.704c-0.967-0.391-1.89-0.934-2.695-1.635c-0.829-0.694-1.448-1.526-1.959-2.314
							c-0.496-0.809-0.898-1.582-1.262-2.4c-0.368-0.81-0.678-1.642-0.941-2.484c-0.515-1.688-0.84-3.421-0.865-5.164
							c-0.002-0.155,0.122-0.283,0.277-0.285C256.593,289.714,256.687,289.772,256.736,289.858z"/>
					</g>
					<path style="fill:#FFFFFF;" d="M252.091,297.516c-0.125,1.073-0.359,2.156-0.882,3.104c-0.414,0.746-1.007,1.383-1.693,1.884
						c-0.147,0.114-0.299,0.218-0.457,0.316c-0.316,0.196-0.643,0.365-0.98,0.506c-1.296,0.55-2.723,0.735-4.127,0.697
						c-1.563-0.049-3.142-0.381-4.52-1.127c-0.212-0.114-0.414-0.24-0.615-0.376c-0.153-0.098-0.305-0.207-0.452-0.321
						c-0.904-0.708-1.639-1.623-2.058-2.685c-0.583-1.454-0.523-3.185,0.289-4.519c0.31-0.506,0.73-0.958,1.269-1.198
						c0.577-0.251,1.241-0.234,1.851-0.082c0.877,0.218,1.65,0.686,2.45,1.084c0.158,0.087,0.321,0.163,0.485,0.24
						c0.142,0.06,0.283,0.12,0.43,0.174c1.094,0.403,2.02,0.169,2.962-0.294c0.158-0.082,0.321-0.163,0.479-0.256
						c0.109-0.06,0.218-0.125,0.332-0.191c0.545-0.321,1.067-0.686,1.644-0.942c0.583-0.256,1.242-0.392,1.851-0.218
						c0.795,0.223,1.378,0.947,1.628,1.737C252.222,295.838,252.189,296.693,252.091,297.516z"/>
					<g>
						<g>
							<path style="fill:#99CFDE;" d="M242.65,295.038c-1.307,2.467-2.592,4.971-3.833,7.482c-0.153-0.098-0.305-0.207-0.452-0.321
								c1.231-2.483,2.505-4.961,3.801-7.4C242.323,294.885,242.486,294.962,242.65,295.038z"/>
						</g>
						<g>
							<path style="fill:#99CFDE;" d="M249.516,302.503c-0.147,0.114-0.299,0.218-0.457,0.316c-1.062-2.608-2.075-5.254-3.017-7.901
								c0.158-0.082,0.321-0.163,0.479-0.256C247.463,297.292,248.465,299.917,249.516,302.503z"/>
						</g>
					</g>
					<circle style="fill:#FFCFB5;" cx="194.923" cy="305.638" r="8.898"/>
					<circle style="fill:#FFCFB5;" cx="292.799" cy="305.638" r="8.898"/>
				</g>
				<path style="opacity:0.5;fill:#FFE3C7;" d="M350.038,397.983c-4.552,5.184-10.901,8.587-17.571,10.357
					c-6.67,1.764-13.673,1.971-20.555,1.486c-7.471-0.528-31.228-1.519-46.811-3.545c-6.779,1.503-13.716,2.385-20.615,2.701
					c-10.346,0.468-20.86-0.289-30.934-2.646c-12.475,1.988-29.975,2.968-37.381,3.49c-6.883,0.485-13.88,0.278-20.55-1.486
					c-6.67-1.77-13.019-5.173-17.577-10.357c-4.552-5.184-7.155-12.241-6.251-19.08c0.136-0.996,0.349-2.015,0.931-2.837
					c1.405-1.998,4.509-2.075,6.605-0.828c2.102,1.252,4.525,3.953,5.772,6.055c4.481-2.178,9.311-3.621,14.25-4.263
					c2.815-0.365,5.652-0.468,8.494-0.474c-4.852-7.122-8.217-15.17-9.447-23.719c-0.131-0.92-0.24-1.846-0.327-2.771
					c2.254,3.436,4.77,6.703,7.509,9.768c10.21,11.446,23.436,20.136,37.865,25.287c8.266,2.951,16.956,4.748,25.733,5.195
					c34.446,1.759,68.543-15.813,89.844-42.94c1.013-1.285,1.998-2.592,2.968-3.91c0.67,9.148,0.267,18.47-3.512,26.746
					c-1.046,2.287-2.331,4.449-3.79,6.49c0.659-0.06,1.28-0.103,1.852-0.109c4.067-0.076,8.157-0.087,12.191,0.436
					c4.939,0.642,9.774,2.085,14.255,4.263c1.247-2.102,3.67-4.802,5.766-6.055c2.102-1.247,5.206-1.171,6.61,0.828
					c0.577,0.822,0.795,1.84,0.926,2.837C357.198,385.742,354.595,392.799,350.038,397.983z"/>
				<path style="opacity:0.5;fill:#FFE3C7;" d="M188.739,374.861c0.45,0.2,0.927,0.382,1.42,0.364
					c0.493-0.018,1.007-0.28,1.184-0.74c0.114-0.297,0.077-0.629,0.008-0.939c-0.199-0.905-0.641-1.738-1.134-2.522
					c-1.235-1.964-5.443-7.982-7.777-4.205C180.423,370.083,186.338,373.793,188.739,374.861z"/>
				<path style="opacity:0.5;fill:#FFE3C7;" d="M198.018,380.868c1.733,0.928,3.673,1.784,5.603,1.413
					c0.353-0.068,0.723-0.194,0.93-0.488c0.306-0.433,0.135-1.034-0.104-1.508c-0.768-1.528-2.112-2.71-3.61-3.535
					c-1.597-0.879-5.074-2.775-6.334-0.536C193.229,378.483,196.44,380.023,198.018,380.868z"/>
				<path style="opacity:0.5;fill:#FFE3C7;" d="M309.84,309.123c0.24,0.307,0.518,0.617,0.894,0.721
					c0.558,0.154,1.143-0.208,1.482-0.677c1.279-1.767,0.873-8.765-2.407-7.783C306.02,302.518,308.262,307.103,309.84,309.123z"/>
				<path style="opacity:0.5;fill:#FFE3C7;" d="M304.157,276.035c-2.341-0.496-4.694-1.111-6.959-1.481
					c-8.298-1.361-16.646-2.374-25.026-3.049c-16.613-1.334-33.329-1.318-49.937,0.054c-9.268,0.768-18.502,1.955-27.661,3.567
					c-5.647,0.991-11.277,2.145-16.989,2.646c-0.065,0.005-0.136,0.011-0.202,0.016c0.153-0.316,0.31-0.626,0.468-0.936
					c2.657-5.238,5.706-8.233,10.525-11.636c10.482-7.4,23.098-11.288,35.676-13.204c18.6-2.831,37.903-1.623,55.747,4.345
					c6.039,2.02,12.023,4.656,16.667,9.006C299.692,268.379,302.126,272.082,304.157,276.035z"/>
			</g>
			<g>
				<path style="fill:#FFFFFF;" d="M97.276,155.597c-7.753,4.782-13.877,12.153-17.157,20.65c-1.171,3.033-1.995,6.307-1.522,9.525
					c0.179,1.219,0.583,2.474,1.502,3.295c1.055,0.942,2.625,1.134,4.001,0.804c1.376-0.329,2.597-1.112,3.744-1.94
					c8.031-5.798,13.669-14.248,19.131-22.51c1.489-2.252,8.131-11.128,5.135-13.009
					C108.111,149.903,100.656,153.512,97.276,155.597z"/>
				<path style="fill:#FFFFFF;" d="M357.563,133.564c-0.703,0.539-1.704,0.327-2.548,0.071
					c-14.288-4.302-26.904-13.852-34.99-26.382c-1.339-2.075-1.9-2.929,0.392-3.828c0.142-0.055,0.299-0.114,0.463-0.169
					c2.243-0.768,4.677-0.964,7.035-0.735c3.354,0.332,6.578,1.503,9.605,3c10.079,4.982,18.448,14.184,20.588,25.227
					c0.016,0.092,0.033,0.185,0.049,0.278v0.005C358.303,131.957,358.287,133.008,357.563,133.564z"/>
				<path style="fill:#FFFFFF;" d="M441.123,239.482c-0.185,2.439-0.757,4.852-1.683,7.111c-0.964,2.358-2.456,4.661-4.53,6.049
					c-0.653,0.441-1.367,0.784-2.134,1.013c-0.245,0.071-0.512,0.131-0.746,0.038c-0.387-0.147-0.534-0.61-0.632-1.007
					c-2.733-11.304-7.242-22.064-10.46-33.226c-0.637-2.205-4.922-14.538-2.009-15.469c1.002-0.321,2.831,0.958,4.28,2.113
					c0.724,0.572,1.35,1.116,1.732,1.41c1.933,1.497,3.746,3.164,5.402,4.971c3.762,4.089,6.752,8.897,8.69,14.108
					C440.557,230.704,441.461,235.109,441.123,239.482z"/>
				<path style="fill:#C92E1A;" d="M434.91,252.643c-1.051,6.414-3.409,12.54-7.307,17.74
					c-8.903,11.859-24.448,17.136-39.275,17.419c-14.827,0.278-29.349-3.724-43.773-7.149c-20.664-4.911-41.59-8.696-62.662-11.342
					c-8.756-1.1-18.061-3.61-26.784-3.452c-10.868,0.196-21.764,0.828-32.589,1.808c-12.175,1.1-24.307,2.755-36.275,5.255
					c-15.263,3.185-30.248,7.727-45.619,10.275c-0.871,0.147-1.742,0.283-2.619,0.414c-16.292,2.445-33.449,2.303-48.63-4.1
					c-15.181-6.398-28.02-19.967-30.215-36.297c-1.568-11.669,2.276-23.408,7.367-34.026c18.116-37.794,51.63-65.864,86.414-89.256
					c12.104-8.146,24.612-15.938,38.35-20.849c13.46-4.808,27.77-6.736,42.02-7.819c25.739-1.966,52.616-1.002,76.613,7.737
					c3.566,1.296,7.068,2.766,10.493,4.427c2.717,1.312,5.385,2.75,7.999,4.307c9.632,5.744,18.241,13.041,26.616,20.495
					c1.045,0.931,2.086,1.862,3.126,2.799v0.005c22.722,20.463,44.132,42.635,60.805,68.238c1.459,2.243,2.886,4.519,4.247,6.834
					c5.14,8.707,9.404,17.931,11.326,27.813C435.727,240.048,435.923,246.479,434.91,252.643z"/>
				<path style="fill:#FFFFFF;" d="M388.311,240.833c-3.93-0.379-8.199,0.361-11.063,3.079c-3.994,3.79-4.001,10.566-1.018,15.194
					c2.983,4.628,8.277,7.33,13.645,8.558c2.658,0.608,5.434,0.905,8.109,0.384c2.676-0.521,5.253-1.936,6.77-4.201
					c3.038-4.539,1.243-11.621-1.7-15.843C400.034,243.673,393.308,241.316,388.311,240.833z"/>
				<path style="fill:#FFFFFF;" d="M364.066,175.274c-1.897,2.853-2.101,6.578-1.273,9.903c0.829,3.325,2.586,6.334,4.405,9.238
					c2.097,3.347,4.333,6.657,7.225,9.347c2.893,2.689,6.522,4.739,10.453,5.115c1.845,0.177,3.807-0.048,5.339-1.091
					c2.322-1.579,3.138-4.646,3.145-7.454c0.012-5.303-2.211-10.367-4.934-14.918C384.397,178.679,371.631,163.896,364.066,175.274z
					"/>
				<path style="fill:#FFFFFF;" d="M260.008,191.61c-1.982,0.815-3.945,1.843-5.345,3.466c-1.568,1.817-2.284,4.202-2.868,6.53
					c-0.512,2.041-0.959,4.131-0.834,6.232c0.263,4.444,3.109,8.435,6.733,11.022c5.26,3.755,11.939,4.89,18.392,5.24
					c4.069,0.221,8.218,0.162,12.118-1.02c2.59-0.785,5.03-2.061,7.152-3.739c1.5-1.186,2.868-2.61,3.642-4.359
					c0.652-1.473,0.852-3.107,0.883-4.718c0.126-6.441-2.787-13.549-8.242-17.279c-4.83-3.302-12.758-4.204-18.401-4.091
					C268.712,188.984,264.197,189.888,260.008,191.61z"/>
				<path style="fill:#FFFFFF;" d="M270.828,106.057c-5.203-0.547-10.472,0.401-15.452,2.004c-2.688,0.865-5.351,1.942-7.596,3.655
					c-2.716,2.072-4.688,4.977-6.251,8.014c-0.768,1.491-1.46,3.075-1.527,4.751c-0.076,1.899,0.666,3.75,1.671,5.364
					c3.195,5.134,8.841,8.163,14.386,10.574c4.945,2.151,10.242,4.031,15.61,3.508c3.029-0.296,5.937-1.35,8.698-2.631
					c2.791-1.295,5.512-2.863,7.628-5.095c3.194-3.37,4.785-8.198,4.219-12.806c-0.587-4.784-3.295-8.824-7.363-11.238
					C280.184,109.388,276.468,106.65,270.828,106.057z"/>
				<path style="fill:#FFFFFF;" d="M166.518,157.736c-2.51,0.619-4.817,1.866-7.036,3.191c-4.362,2.604-8.59,5.632-11.601,9.724
					c-3.01,4.092-4.677,9.408-3.472,14.343c0.453,1.853,1.317,3.637,2.677,4.975c3.512,3.455,9.316,3.106,13.901,1.302
					c7.701-3.029,13.93-9.586,16.56-17.432c0.888-2.648,1.383-5.492,0.904-8.243C177.413,159.637,172.311,156.307,166.518,157.736z"
					/>
				<path style="fill:#FFFFFF;" d="M150.94,234.273c-1.504-0.174-3.019,0.162-4.476,0.572c-6.628,1.864-12.796,5.34-17.823,10.044
					c-2.114,1.978-4.131,4.402-4.32,7.291c-0.198,3.024,1.767,5.911,4.391,7.427c2.624,1.516,5.788,1.839,8.809,1.595
					c5.722-0.462,11.266-2.888,15.488-6.777c2.602-2.397,4.759-5.459,5.329-8.951C159.085,240.896,155.962,234.853,150.94,234.273z"
					/>
				<path style="fill:#FFFFFF;" d="M90.529,209.016c-2.422,2.382-4.191,5.353-5.632,8.43c-1.816,3.876-3.165,8.037-3.316,12.315
					c-0.151,4.278,0.98,8.694,3.681,12.015c1.906,2.344,4.555,4.075,7.466,4.881c1.349,0.373,2.785,0.551,4.15,0.241
					c3.003-0.681,5.005-3.509,6.299-6.304c3.206-6.922,3.825-15.007,1.709-22.337C103.254,212.607,97.018,202.633,90.529,209.016z"
					/>
				<path style="opacity:0.5;fill:#C92E1A;" d="M441.123,239.482c-0.185,2.439-0.757,4.852-1.683,7.111
					c-0.964,2.358-2.456,4.661-4.53,6.049c-1.051,6.414-3.409,12.54-7.307,17.74c-8.903,11.859-24.448,17.136-39.275,17.419
					c-14.827,0.278-29.349-3.724-43.773-7.149c-20.664-4.911-41.59-8.696-62.662-11.342c-8.756-1.1-18.061-3.61-26.784-3.452
					c-10.868,0.196-21.764,0.828-32.589,1.808c-12.175,1.1-24.307,2.755-36.275,5.255c-15.263,3.185-30.248,7.727-45.619,10.275
					c0.686-0.681,1.416-1.323,2.145-1.922c19.118-15.769,44.388-21.949,69.033-24.514c24.645-2.565,49.637-1.987,74.021-6.403
					c24.383-4.416,48.935-14.658,64.023-34.315c6.545-8.527,11.119-18.742,11.996-29.452c2.08-25.483-16.107-47.639-33.171-66.675
					c-6.251-6.97-12.507-13.939-18.747-20.915c3.566,1.296,7.068,2.766,10.493,4.427c0.142-0.055,0.299-0.114,0.463-0.169
					c2.243-0.768,4.677-0.964,7.035-0.735c3.354,0.332,6.578,1.503,9.605,3c10.079,4.982,18.448,14.184,20.588,25.227
					c0.016,0.092,0.033,0.185,0.049,0.278v0.005c22.722,20.463,44.132,42.635,60.805,68.238c1.459,2.243,2.886,4.519,4.247,6.834
					c0.724,0.572,1.35,1.116,1.732,1.41c1.933,1.497,3.746,3.164,5.402,4.971c3.762,4.089,6.752,8.897,8.69,14.108
					C440.557,230.704,441.461,235.109,441.123,239.482z"/>
				<path style="opacity:0.5;fill:#C92E1A;" d="M166.712,116.665c-5.367,3.561-10.529,7.629-14.234,12.897
					c-0.876,1.247-1.7,2.762-1.275,4.225c0.395,1.361,1.81,2.231,3.218,2.391c1.408,0.159,2.814-0.257,4.149-0.731
					c3.17-1.125,6.206-2.594,9.213-4.102c6.696-3.36,13.287-6.932,19.758-10.708c4.165-2.43,8.297-4.967,12.045-8.016
					c2.042-1.661,9.178-7.072,8.354-10.142c-1.722-6.416-22.205,3.818-25.424,5.322
					C177.038,110.359,171.749,113.323,166.712,116.665z"/>
				<path style="opacity:0.5;fill:#C92E1A;" d="M117.731,153.378c-7.557,5.984-14.413,12.996-19.339,21.282
					c-1.289,2.169-2.447,4.919-1.187,7.105c1.469,2.55,5.201,2.534,7.963,1.516c3.136-1.156,5.894-3.136,8.546-5.17
					c5.671-4.352,11.057-9.066,16.233-13.996c3.172-3.022,6.276-6.141,9.004-9.576c2.384-3.003,5.786-7.182,6.45-11.075
					c0.503-2.949-1.939-4.037-4.549-3.958c-3.845,0.117-7.17,2.868-10.271,4.842C126.162,147.16,121.838,150.126,117.731,153.378z"
					/>
				<path style="opacity:0.5;fill:#C92E1A;" d="M78.607,203.71c0.328,0.575,0.799,1.099,1.418,1.332
					c0.972,0.366,2.054-0.051,2.974-0.535c2.908-1.529,5.414-3.806,7.249-6.528c1.225-1.816,3.583-5.439,2.508-7.723
					c-2.257-4.796-9.475,0.022-11.324,2.51C79.31,195.622,76.569,200.133,78.607,203.71z"/>
			</g>
		</g>
	</g>
</g>
</svg>
